<svg width="18" height="18" viewBox="0 0 18 18" fill="none" xmlns="http://www.w3.org/2000/svg">
<path fill-rule="evenodd" clip-rule="evenodd" d="M8.99996 4.0681L5.50436 7.56363L3.47034 5.52962L8.99996 0L14.5313 5.53141L12.4973 7.56547L8.99996 4.0681ZM4.06805 8.99973L2.03406 6.96574L0 8.99983L2.03396 11.0338L4.06805 8.99973ZM8.99996 13.9316L5.50436 10.4361L3.46744 12.4674L3.47027 12.4702L8.99996 17.9998L14.5313 12.4684L14.5324 12.4673L12.4973 10.4344L8.99996 13.9316ZM15.966 11.0341L18 9.00009L15.966 6.96611L13.9321 9.00009L15.966 11.0341ZM11.0636 8.99808H11.0626L11.0645 8.99906L8.99958 11.0642L6.93737 9.00194L6.93457 8.99906L8.99958 6.93405L11.0636 8.99808Z" fill="black"/>
</svg>
