<svg width="32" height="32" viewBox="0 0 32 32" fill="none" xmlns="http://www.w3.org/2000/svg">
<path fill-rule="evenodd" clip-rule="evenodd" d="M21.5883 10.1515C21.8179 10.1515 22.0476 10.0751 22.2007 9.92233C22.5835 9.61676 22.5835 9.00561 22.2773 8.70004L19.6744 5.9499H25.4926C26.105 5.9499 26.5643 6.10268 26.8705 6.48465C27.4064 7.09579 27.483 8.16529 27.483 8.47086V8.54726V14.8115C27.483 15.2698 27.8658 15.7282 28.4016 15.7282C28.861 15.7282 29.3203 15.3462 29.3203 14.8115V8.54726C29.3203 8.52799 29.3205 8.50522 29.3207 8.47921C29.3249 7.98959 29.3389 6.35045 28.2485 5.26236C27.5595 4.57482 26.6409 4.19286 25.5691 4.19286H19.7509L22.3538 1.44271C22.66 1.06075 22.66 0.525999 22.2773 0.220427C21.8945 -0.0851447 21.3586 -0.0851446 21.0524 0.29682L17.0715 4.57482C16.7653 4.8804 16.7653 5.41515 17.0715 5.79711L21.0524 10.0751C21.0804 10.0751 21.1289 10.0854 21.1905 10.0983C21.2971 10.1208 21.4427 10.1515 21.5883 10.1515ZM3.98085 13.1312H6.20094V12.1381H1.37799C0.612438 12.1381 0 11.527 0 10.763V3.5821C0 2.81817 0.612438 2.20703 1.37799 2.20703H12.6315C13.3971 2.20703 14.0095 2.81817 14.0095 3.5821V10.6866C14.0095 11.4506 13.3971 12.0617 12.6315 12.0617H8.03825V13.0548H10.2583C10.7942 13.0548 11.177 13.4368 11.177 13.9715C11.177 14.5063 10.7177 14.8883 10.2583 14.8883H3.98085C3.52152 14.8883 3.06219 14.5827 3.06219 14.0479C3.06219 13.5132 3.52152 13.1312 3.98085 13.1312ZM12.4784 3.96407H1.60765V10.3047H12.4784V3.96407ZM9.18668 21.9927C9.49289 21.6871 10.1053 21.6871 10.4116 22.069L14.469 26.1943C14.7752 26.5762 14.7752 27.111 14.469 27.4166L10.4881 31.6946C10.2584 31.9237 10.0288 32.0001 9.79911 32.0001C9.56945 32.0001 9.33978 31.9237 9.18668 31.771C8.8039 31.4654 8.8039 30.9306 9.11012 30.5487L11.713 27.7985H5.89482C4.82305 27.7985 3.9044 27.4166 3.2154 26.729C2.12501 25.6409 2.13903 24.0018 2.14322 23.5122C2.14344 23.4862 2.14364 23.4634 2.14364 23.4441V17.1799C2.14364 16.7215 2.44986 16.2632 2.98574 16.2632C3.52162 16.2632 3.9044 16.7215 3.9044 17.1799V23.3677V23.4441C3.9044 23.7497 3.98095 24.8192 4.51684 25.4303C4.82305 25.8123 5.28238 25.9651 5.89482 25.9651H11.713L9.11012 23.2149C8.8039 22.9094 8.8039 22.2982 9.18668 21.9927ZM29.2438 20.8461C29.2438 22.0684 28.7079 23.2143 27.8658 23.9782C30.3155 25.0477 31.9998 27.4923 31.9998 30.3188C31.9998 30.8536 31.5404 31.2356 31.0811 31.2356H18.9089C18.373 31.2356 17.9902 30.7772 17.9902 30.3188C17.9902 27.4923 19.6744 25.0477 22.0476 23.9782C21.2055 23.2143 20.6697 22.0684 20.6697 20.8461C20.6697 18.4779 22.5835 16.5681 24.9567 16.5681C27.3299 16.5681 29.2438 18.4779 29.2438 20.8461ZM24.9567 18.4015C23.6553 18.4015 22.507 19.471 22.507 20.8461C22.507 22.2212 23.6553 23.2907 25.0333 23.2907C26.3347 23.2907 27.4065 22.1448 27.4065 20.8461C27.4065 19.5474 26.3347 18.4015 24.9567 18.4015ZM25.0333 25.1241C22.4304 25.1241 20.3634 26.9576 19.9041 29.4021H30.1624C29.7031 26.9576 27.6361 25.1241 25.0333 25.1241Z" fill="black"/>
</svg>
