<svg width="76" height="74" viewBox="0 0 76 74" fill="none" xmlns="http://www.w3.org/2000/svg">
<rect x="5.21541e-07" y="-1.7684" width="29.6255" height="29.6255" rx="1.75" transform="matrix(-0.706851 -0.707362 0.706852 -0.707362 39.4902 56.6965)" stroke="black" stroke-width="2.5"/>
<mask id="path-2-inside-1_6965_1200" fill="white">
<rect width="16.0627" height="16.0627" rx="2" transform="matrix(-0.706851 -0.707362 0.706852 -0.707362 38.2393 48.3545)"/>
</mask>
<rect width="16.0627" height="16.0627" rx="2" transform="matrix(-0.706851 -0.707362 0.706852 -0.707362 38.2393 48.3545)" fill="#51D9B8" stroke="black" stroke-width="5" mask="url(#path-2-inside-1_6965_1200)"/>
<path d="M30.2246 51.2715L24.6881 55.5939C23.9599 56.1625 23.5342 57.0348 23.5342 57.9586L23.5342 66.001" stroke="black" stroke-width="2.5"/>
<path fill-rule="evenodd" clip-rule="evenodd" d="M18.325 68.7877C18.325 65.909 20.657 63.5753 23.5336 63.5753C26.4102 63.5753 28.7422 65.909 28.7422 68.7877C28.7422 71.6664 26.4102 74 23.5336 74C20.657 74 18.325 71.6664 18.325 68.7877ZM23.5336 66.1096C22.0556 66.1096 20.8575 67.3086 20.8575 68.7877C20.8575 70.2667 22.0556 71.4658 23.5336 71.4658C25.0116 71.4658 26.2098 70.2667 26.2098 68.7877C26.2098 67.3086 25.0116 66.1096 23.5336 66.1096Z" fill="black"/>
<path d="M30.2246 23.3174L24.6881 18.9949C23.9599 18.4264 23.5342 17.5541 23.5342 16.6302L23.5342 8.58789" stroke="black" stroke-width="2.5"/>
<path fill-rule="evenodd" clip-rule="evenodd" d="M18.325 5.90974C18.325 3.03105 20.657 0.697411 23.5336 0.697411C26.4102 0.697411 28.7422 3.03105 28.7422 5.90974C28.7422 8.78843 26.4102 11.1221 23.5336 11.1221C20.657 11.1221 18.325 8.78843 18.325 5.90974ZM23.5336 3.23165C22.0556 3.23165 20.8575 4.43067 20.8575 5.90974C20.8575 7.38881 22.0556 8.58783 23.5336 8.58783C25.0116 8.58783 26.2098 7.38881 26.2098 5.90974C26.2098 4.43067 25.0116 3.23165 23.5336 3.23165Z" fill="#6237DE"/>
<path d="M46.6152 23.3174L52.1518 18.9949C52.88 18.4264 53.3056 17.5541 53.3056 16.6302L53.3056 8.58789" stroke="black" stroke-width="2.5"/>
<path fill-rule="evenodd" clip-rule="evenodd" d="M48.0965 5.21247C48.0965 2.33378 50.4285 0.000145205 53.3051 0.000145457C56.1817 0.000145708 58.5137 2.33379 58.5137 5.21248C58.5137 8.09117 56.1817 10.4248 53.3051 10.4248C50.4285 10.4248 48.0965 8.09116 48.0965 5.21247ZM53.3051 2.53439C51.8271 2.53439 50.6289 3.73341 50.6289 5.21247C50.6289 6.69154 51.8271 7.89056 53.3051 7.89056C54.7831 7.89056 55.9813 6.69154 55.9813 5.21248C55.9813 3.73341 54.7831 2.53439 53.3051 2.53439Z" fill="black"/>
<path d="M46.6152 51.0322L52.1518 55.3547C52.88 55.9232 53.3056 56.7955 53.3056 57.7194L53.3056 65.7617" stroke="black" stroke-width="2.5"/>
<path fill-rule="evenodd" clip-rule="evenodd" d="M48.0965 68.7877C48.0965 65.909 50.4285 63.5753 53.3051 63.5753C56.1817 63.5753 58.5137 65.909 58.5137 68.7877C58.5137 71.6664 56.1817 74 53.3051 74C50.4285 74 48.0965 71.6664 48.0965 68.7877ZM53.3051 66.1096C51.8271 66.1096 50.6289 67.3086 50.6289 68.7877C50.6289 70.2667 51.8271 71.4658 53.3051 71.4658C54.7831 71.4658 55.9813 70.2667 55.9813 68.7877C55.9813 67.3086 54.7831 66.1096 53.3051 66.1096Z" fill="#6237DE"/>
<path d="M53.7584 41.3115L56.9376 47.5761C57.3561 48.4006 58.1313 48.9863 59.0388 49.1633L66.9245 50.7023" stroke="black" stroke-width="2.5"/>
<path fill-rule="evenodd" clip-rule="evenodd" d="M70.8885 46.1659C68.0651 45.6149 65.3299 47.4587 64.7793 50.2842C64.2287 53.1096 66.0711 55.8468 68.8946 56.3978C71.718 56.9488 74.4532 55.105 75.0038 52.2796C75.5544 49.4541 73.7119 46.7169 70.8885 46.1659ZM67.2649 50.7693C67.5478 49.3175 68.9531 48.3702 70.4038 48.6533C71.8544 48.9364 72.8011 50.3428 72.5182 51.7945C72.2353 53.2462 70.83 54.1935 69.3793 53.9104C67.9286 53.6273 66.982 52.221 67.2649 50.7693Z" fill="black"/>
<path d="M53.7584 32.9971L56.9376 26.7325C57.3561 25.908 58.1313 25.3223 59.0388 25.1452L66.9245 23.6063" stroke="black" stroke-width="2.5"/>
<path fill-rule="evenodd" clip-rule="evenodd" d="M70.8885 28.1427C68.0651 28.6937 65.3299 26.8499 64.7793 24.0244C64.2287 21.1989 66.0711 18.4618 68.8946 17.9108C71.718 17.3598 74.4532 19.2036 75.0038 22.029C75.5544 24.8545 73.7119 27.5917 70.8885 28.1427Z" fill="#51D9B8"/>
<path d="M22.2426 41.3115L19.0633 47.5761C18.6449 48.4006 17.8697 48.9863 16.9622 49.1633L9.0765 50.7023" stroke="black" stroke-width="2.5"/>
<path fill-rule="evenodd" clip-rule="evenodd" d="M5.11247 46.1659C7.9359 45.6149 10.6711 47.4587 11.2217 50.2842C11.7723 53.1096 9.92983 55.8468 7.10641 56.3978C4.28298 56.9488 1.54778 55.105 0.997175 52.2796C0.446565 49.4541 2.28905 46.7169 5.11247 46.1659Z" fill="#6237DE"/>
<path d="M22.2426 32.9971L19.0633 26.7325C18.6449 25.908 17.8697 25.3223 16.9622 25.1452L9.0765 23.6063" stroke="black" stroke-width="2.5"/>
<path fill-rule="evenodd" clip-rule="evenodd" d="M5.11247 28.1427C7.9359 28.6937 10.6711 26.8499 11.2217 24.0244C11.7723 21.1989 9.92983 18.4618 7.10641 17.9108C4.28298 17.3598 1.54778 19.2036 0.997174 22.029C0.446565 24.8545 2.28905 27.5917 5.11247 28.1427ZM8.73612 23.5393C8.45321 24.9911 7.04787 25.9384 5.5972 25.6553C4.14653 25.3722 3.19986 23.9658 3.48276 22.5141C3.76567 21.0624 5.17101 20.115 6.62168 20.3982C8.07235 20.6813 9.01902 22.0876 8.73612 23.5393Z" fill="black"/>
</svg>
