<svg width="25" height="24" viewBox="0 0 25 24" fill="none" xmlns="http://www.w3.org/2000/svg">
<path d="M18.8383 18.337H16.171V14.16C16.171 13.1639 16.1532 11.8816 14.7838 11.8816C13.3945 11.8816 13.182 12.9669 13.182 14.0874V18.3368H10.5147V9.74698H13.0753V10.9209H13.1111C13.3674 10.4827 13.7377 10.1223 14.1826 9.87793C14.6275 9.63359 15.1303 9.51449 15.6376 9.53332C18.341 9.53332 18.8394 11.3115 18.8394 13.6248L18.8383 18.337ZM7.50511 8.57281C7.19897 8.57287 6.89969 8.48214 6.64511 8.3121C6.39054 8.14207 6.1921 7.90036 6.0749 7.61755C5.95769 7.33473 5.92698 7.02352 5.98665 6.72325C6.04633 6.42298 6.19369 6.14715 6.41013 5.93064C6.62656 5.71413 6.90234 5.56666 7.20258 5.50688C7.50283 5.4471 7.81406 5.4777 8.09692 5.5948C8.37977 5.71191 8.62155 5.91026 8.79168 6.16477C8.9618 6.41929 9.05264 6.71853 9.05269 7.02467C9.05273 7.22794 9.01273 7.42922 8.93498 7.61703C8.85722 7.80484 8.74324 7.9755 8.59953 8.11926C8.45582 8.26302 8.28521 8.37706 8.09743 8.45488C7.90965 8.5327 7.70838 8.57278 7.50511 8.57281ZM8.83875 18.337H6.16868V9.74698H8.83875V18.337ZM20.1681 3.00012H4.82837C4.4802 2.99619 4.14471 3.13064 3.89563 3.37394C3.64655 3.61724 3.50425 3.94948 3.5 4.29764V19.701C3.5041 20.0493 3.64631 20.3818 3.89539 20.6253C4.14446 20.8689 4.48003 21.0036 4.82837 20.9999H20.1681C20.5171 21.0043 20.8536 20.8699 21.1037 20.6264C21.3537 20.3828 21.4969 20.05 21.5017 19.701V4.29653C21.4967 3.94768 21.3535 3.61506 21.1034 3.37177C20.8534 3.12848 20.5169 2.99551 20.1681 3.00012Z" fill="#0A66C2"/>
</svg>
