<svg width="126" height="21" viewBox="0 0 126 21" fill="none" xmlns="http://www.w3.org/2000/svg">
<path d="M8.30109 0.970387C6.08875 0.970387 4.29122 1.66175 2.88875 3.02471C1.48628 4.38767 0.794922 6.22471 0.794922 8.57532C0.794922 10.9062 1.48628 12.763 2.88875 14.1259C4.29122 15.4889 6.1085 16.1803 8.32085 16.1803C10.1381 16.1803 11.6986 15.6864 12.9826 14.679C14.2665 13.6716 15.0566 12.3284 15.3332 10.6099L12.1332 10.3333C11.7381 12.3679 10.2764 13.4741 8.22208 13.4741C6.95788 13.4741 5.91097 13.0395 5.10109 12.1901C4.29122 11.3408 3.89616 10.1358 3.89616 8.57532C3.89616 7.09384 4.29122 5.90866 5.06159 5.01977C5.85171 4.13088 6.89862 3.67656 8.20233 3.67656C10.2566 3.67656 11.7184 4.82224 12.1332 6.87656L15.3134 6.60002C15.0566 4.8815 14.2665 3.49878 12.9628 2.49137C11.6789 1.48397 10.1184 0.970387 8.30109 0.970387Z" fill="black"/>
<path d="M23.1588 5.65187C21.8354 5.65187 20.8872 6.06668 20.3539 6.91606V5.75063H17.5687V15.963H20.4526V10.7877C20.4526 9.36545 21.4995 8.43705 23.1588 8.43705V5.65187Z" fill="black"/>
<path d="M34.8503 5.75063H31.6503L29.3195 11.8346L26.9688 5.75063H23.7886L27.7787 15.0543L25.1713 21H28.312L34.8503 5.75063Z" fill="black"/>
<path d="M42.144 5.5531C40.7613 5.5531 39.7539 5.96792 39.1218 6.8173V5.75063H36.3958V21H39.2798V15.0938C39.9316 15.8247 40.8995 16.1803 42.144 16.1803C43.6057 16.1803 44.7909 15.6864 45.6995 14.7185C46.6279 13.7506 47.0823 12.4667 47.0823 10.8667C47.0823 9.26668 46.6279 7.98273 45.6995 7.01483C44.7909 6.04693 43.6057 5.5531 42.144 5.5531ZM41.6897 8.02224C43.1712 8.02224 44.1588 9.06915 44.1588 10.8667C44.1588 12.6642 43.1712 13.7111 41.6897 13.7111C40.2477 13.7111 39.2798 12.7037 39.2798 11.1037V10.6296C39.2798 9.02964 40.2477 8.02224 41.6897 8.02224Z" fill="black"/>
<path d="M55.3238 8.23952V5.75063H52.9337L52.9534 2.37286H50.0695L50.0497 5.75063H48.1732V8.23952H50.0299L50.0102 12.7235C49.9904 15.0148 51.4127 16.1605 53.7238 16.1605C54.2374 16.1605 54.7707 16.121 55.3238 16.042V13.4741C54.9485 13.5333 54.6522 13.5729 54.4349 13.5729C53.546 13.5729 52.8941 13.079 52.8941 12.0321L52.9139 8.23952H55.3238Z" fill="black"/>
<path d="M67.6753 10.8667C67.6753 9.26668 67.1617 7.98273 66.1346 7.01483C65.1272 6.04693 63.8235 5.5531 62.2432 5.5531C60.663 5.5531 59.3593 6.04693 58.3321 7.01483C57.3247 7.98273 56.8111 9.26668 56.8111 10.8667C56.8111 12.4469 57.3247 13.7309 58.3321 14.7185C59.3593 15.6864 60.663 16.1803 62.2432 16.1803C63.8235 16.1803 65.1272 15.6864 66.1346 14.7185C67.1617 13.7309 67.6753 12.4469 67.6753 10.8667ZM64.0605 8.79261C64.5148 9.28644 64.7519 9.97779 64.7519 10.8667C64.7519 11.7556 64.5148 12.4469 64.0605 12.9408C63.6062 13.4346 62.9938 13.6914 62.2432 13.6914C61.4926 13.6914 60.8803 13.4346 60.4259 12.9408C59.9716 12.4469 59.7346 11.7556 59.7346 10.8667C59.7346 9.97779 59.9716 9.28644 60.4259 8.79261C60.8803 8.27903 61.4926 8.02224 62.2432 8.02224C62.9938 8.02224 63.6062 8.27903 64.0605 8.79261Z" fill="black"/>
<path d="M76.9928 7.90372V10.5901H80.7063C80.252 12.5457 78.8891 13.4741 76.973 13.4741C74.2668 13.4741 72.6076 11.7951 72.6076 8.57532C72.6076 5.35557 74.2668 3.67656 76.973 3.67656C78.9681 3.67656 80.331 4.76298 80.7458 6.58026L83.9063 6.04693C83.5113 4.44693 82.7014 3.20249 81.4569 2.3136C80.2125 1.42471 78.731 0.970387 76.9928 0.970387C74.8002 0.970387 73.0026 1.66175 71.6002 3.02471C70.1977 4.38767 69.5063 6.22471 69.5063 8.57532C69.5063 10.9062 70.1977 12.763 71.6002 14.1259C73.0026 15.4889 74.8199 16.1803 77.0125 16.1803C79.1656 16.1803 80.8644 15.5087 82.1285 14.1852C83.4125 12.8617 84.0446 11.084 84.0446 8.89137V7.90372H76.9928Z" fill="black"/>
<path d="M95.9554 10.6296C95.9554 9.0494 95.5208 7.80495 94.632 6.91606C93.7431 6.00742 92.5579 5.5531 91.0764 5.5531C89.5357 5.5531 88.2912 6.02718 87.3233 6.99508C86.3554 7.94323 85.8813 9.22718 85.8813 10.8667C85.8813 12.4864 86.3554 13.7704 87.3233 14.7383C88.2912 15.7062 89.5752 16.1803 91.1554 16.1803C92.3603 16.1803 93.3875 15.8642 94.2566 15.2519C95.1455 14.6395 95.6789 13.8296 95.8566 12.8617L92.9529 12.7235C92.7357 13.4741 92.1036 13.8494 91.0764 13.8494C89.7924 13.8494 89.0023 13.0593 88.9431 11.7753H95.9554V10.6296ZM91.0566 7.80495C92.3208 7.80495 92.9924 8.57532 93.0517 9.85927H88.9431C89.0221 8.57532 89.8122 7.80495 91.0566 7.80495Z" fill="black"/>
<path d="M103.712 5.5531C102.408 5.5531 101.499 5.96792 100.966 6.79755V5.75063H98.24V15.963H101.124V10.2938C101.124 9.0494 101.894 8.23952 103.02 8.23952C104.126 8.23952 104.818 8.99014 104.818 10.2741V15.963H107.702V9.721C107.702 7.1136 106.102 5.5531 103.712 5.5531Z" fill="black"/>
<path d="M111.893 0.674091C110.451 0.595078 109.562 2.6494 110.668 3.63705C111.32 4.28891 112.465 4.28891 113.117 3.63705C113.453 3.30125 113.631 2.88644 113.631 2.41236C113.631 1.44446 112.86 0.674091 111.893 0.674091ZM113.335 5.75063H110.451V15.963H113.335V5.75063Z" fill="black"/>
<path d="M125.72 10.6296C125.72 9.0494 125.285 7.80495 124.397 6.91606C123.508 6.00742 122.323 5.5531 120.841 5.5531C119.3 5.5531 118.056 6.02718 117.088 6.99508C116.12 7.94323 115.646 9.22718 115.646 10.8667C115.646 12.4864 116.12 13.7704 117.088 14.7383C118.056 15.7062 119.34 16.1803 120.92 16.1803C122.125 16.1803 123.152 15.8642 124.021 15.2519C124.91 14.6395 125.444 13.8296 125.621 12.8617L122.718 12.7235C122.5 13.4741 121.868 13.8494 120.841 13.8494C119.557 13.8494 118.767 13.0593 118.708 11.7753H125.72V10.6296ZM120.821 7.80495C122.085 7.80495 122.757 8.57532 122.816 9.85927H118.708C118.787 8.57532 119.577 7.80495 120.821 7.80495Z" fill="black"/>
</svg>
